<svg xmlns="http://www.w3.org/2000/svg" version="1.1" xmlns:xlink="http://www.w3.org/1999/xlink" xmlns:svgjs="http://svgjs.dev/svgjs" viewBox="0 0 800 800"><defs><filter id="ssspot-filter" x="-20%" y="-20%" width="140%" height="140%" filterUnits="objectBoundingBox" primitiveUnits="userSpaceOnUse" color-interpolation-filters="sRGB">
	<feTurbulence type="turbulence" baseFrequency="0.022 0.218" numOctaves="2" seed="32" stitchTiles="stitch" x="0%" y="0%" width="100%" height="100%" result="turbulence"></feTurbulence>
	<feGaussianBlur stdDeviation="0 3" x="0%" y="0%" width="100%" height="100%" in="turbulence" edgeMode="duplicate" result="blur"></feGaussianBlur>
	<feDisplacementMap in="SourceGraphic" in2="blur" scale="32" xChannelSelector="R" yChannelSelector="B" x="0%" y="0%" width="100%" height="100%" result="displacementMap"></feDisplacementMap>
</filter></defs><rect width="100%" height="100%" fill="hsl(32, 100%, 89%)"></rect><g fill="hsl(32, 100%, 51%)" filter="url(#ssspot-filter)"><circle r="7.569096332381246" cx="523.7694962443818" cy="746.6792504929953" opacity="0.6209814965342697"></circle><circle r="7.1319385254847" cx="549.6069747370802" cy="482.72879601527734" opacity="0.22625066035000355"></circle><circle r="6.242155983923411" cx="655.4876549252873" cy="782.8246087157995" opacity="0.6147728312270596"></circle><circle r="5.8780671997876475" cx="538.6098167437153" cy="549.2696914253095" opacity="0.23902654526311387"></circle><circle r="12.443382265299963" cx="199.29128078044414" cy="620.310160976821" opacity="0.6739000755937633"></circle><circle r="7.706307105659858" cx="735.7592306569777" cy="137.55758239047185" opacity="0.5541070220732518"></circle><circle r="7.0228543345497965" cx="289.19070785675046" cy="773.7974653296806" opacity="0.599836881211578"></circle><circle r="5.257803394044494" cx="666.5130742962617" cy="356.09708297922367" opacity="0.35918045916683694"></circle><circle r="5.3354327623364055" cx="205.52690037923367" cy="489.3917116128881" opacity="0.46543354841047924"></circle><circle r="6.179262227787747" cx="641.2740018353653" cy="187.79571321102858" opacity="0.9591824694895873"></circle><circle r="6.127864250205512" cx="28.428277285778627" cy="197.09344429118872" opacity="0.3015379183888327"></circle><circle r="7.9135185708321405" cx="148.3730445808043" cy="443.40927874701873" opacity="0.9682985453727448"></circle><circle r="7.7463676725674" cx="389.2469212201894" cy="120.88531637420154" opacity="0.8977328289382742"></circle><circle r="4.473335138792138" cx="523.5102035801509" cy="653.3681713823792" opacity="0.6675827116934638"></circle><circle r="6.198855510844982" cx="89.57175485914492" cy="333.8640135325526" opacity="0.9687671003234718"></circle><circle r="10.60389171423213" cx="229.2946960274244" cy="571.7237739270755" opacity="0.9450397609620637"></circle><circle r="6.465372402152395" cx="573.1338360054391" cy="426.8205969738661" opacity="0.7380124576705338"></circle><circle r="8.166536898159581" cx="504.5698719226564" cy="702.0961809521729" opacity="0.810986078453157"></circle><circle r="7.310285172600759" cx="651.6695322032972" cy="316.4006560276466" opacity="0.5698661840243604"></circle><circle r="11.407241649390809" cx="625.323333040527" cy="559.4708461802871" opacity="0.8536620387518433"></circle><circle r="5.648981013993353" cx="418.26220937506616" cy="210.54572020199709" opacity="0.5919078730216605"></circle><circle r="2.5976928533778927" cx="597.3401668795872" cy="10.335655744832778" opacity="0.8627278863855146"></circle><circle r="7.628713486360253" cx="387.50849651679187" cy="631.2099775856965" opacity="0.4387962987625901"></circle><circle r="7.463525912110855" cx="597.2343705555573" cy="739.7046502066981" opacity="0.42145717720292086"></circle><circle r="4.5431786648495525" cx="113.95963342005894" cy="787.0288350644838" opacity="0.12991297463976995"></circle><circle r="5.461194429055402" cx="53.88535999074405" cy="310.6649201932719" opacity="0.3562290839991885"></circle><circle r="6.76331616276282" cx="57.82154639658447" cy="635.9068138067352" opacity="0.5860411689045871"></circle><circle r="9.33162459364452" cx="133.58916115779965" cy="762.9882243218091" opacity="0.9840845103050425"></circle><circle r="3.1045584272116673" cx="69.1952663344412" cy="32.52302969669493" opacity="0.8538841869421054"></circle><circle r="3.6231463143406035" cx="279.4726761630481" cy="253.72924067029115" opacity="0.7847761220760473"></circle><circle r="6.634249282635997" cx="543.3195024757526" cy="142.56466967666685" opacity="0.6259774044051851"></circle><circle r="3.1950084843481594" cx="292.48775925373644" cy="125.37706435022169" opacity="0.7245854125409403"></circle><circle r="10.807018996072802" cx="647.9915312310911" cy="480.64728554838194" opacity="0.4322354089984787"></circle><circle r="4.941110250376579" cx="717.3956106435203" cy="331.9684059183294" opacity="0.6514933356252505"></circle><circle r="4.779148306526067" cx="318.7425188049318" cy="274.6110701805104" opacity="0.8503910316036897"></circle><circle r="4.431114033833788" cx="188.83160983606047" cy="428.1575214458376" opacity="0.29711784835510724"></circle><circle r="4.750154813426664" cx="552.3207849882111" cy="296.320679830561" opacity="0.3079576123622093"></circle><circle r="9.673294622855558" cx="94.49982408079303" cy="622.6855298532364" opacity="0.6383522554029163"></circle><circle r="6.0482450888041654" cx="368.90815935852794" cy="430.17533639363376" opacity="0.6448524027352117"></circle><circle r="6.764589812807957" cx="715.1959474799934" cy="39.58124470078087" opacity="0.7368774449931978"></circle><circle r="9.093493549814351" cx="192.4164589983718" cy="101.07719729049306" opacity="0.2925689410635908"></circle><circle r="4.449806566494698" cx="19.143405302628153" cy="12.244195715707884" opacity="0.8694028093782612"></circle><circle r="7.853943709308646" cx="569.8814119790171" cy="185.00405383250643" opacity="0.8897350288274599"></circle><circle r="5.821996414450659" cx="290.5368849547551" cy="676.65078521217" opacity="0.9987438394917787"></circle><circle r="9.581952087662295" cx="616.3124527887686" cy="300.49841649051" opacity="0.5539338466165143"></circle><circle r="7.13557061996163" cx="296.37501831525236" cy="433.4027320985739" opacity="0.4773969838958919"></circle><circle r="7.517433012759972" cx="749.6137540026364" cy="239.14275111549856" opacity="0.26020397936878226"></circle><circle r="8.15063387438912" cx="227.17041302003676" cy="777.9709194611391" opacity="0.4664282891703896"></circle><circle r="5.031634595451228" cx="781.5986423116825" cy="306.3978237835893" opacity="0.4560460797190954"></circle><circle r="9.064727459026134" cx="133.22584718943523" cy="721.5948610726911" opacity="0.9798897769637004"></circle><circle r="9.063460448737011" cx="750.5862532839689" cy="620.9481555998867" opacity="0.5721652477208993"></circle><circle r="10.674099226172519" cx="652.3463740033047" cy="675.6807984425682" opacity="0.6129792060116268"></circle><circle r="7.516717337273382" cx="136.13025651008294" cy="99.4999949246759" opacity="0.5292241901861483"></circle><circle r="6.840223553432775" cx="178.5139690437319" cy="370.9725012979451" opacity="0.8564397407202258"></circle><circle r="8.548300949848405" cx="167.47662792802035" cy="564.2814915749657" opacity="0.6090497880914281"></circle><circle r="8.033588206827249" cx="482.54623797955225" cy="272.1871998429166" opacity="0.8396252510041732"></circle><circle r="9.843698063655173" cx="354.1711478189021" cy="254.6234727190988" opacity="0.35276268710553704"></circle><circle r="6.3464953269179425" cx="195.21521265081398" cy="58.38966126166832" opacity="0.32935616450333277"></circle><circle r="4.620978591147941" cx="273.85451646289283" cy="386.93572707329116" opacity="0.8120572854807019"></circle><circle r="8.407768178580596" cx="505.1987272352326" cy="303.0468511330194" opacity="0.8398361353592745"></circle><circle r="7.968304483750629" cx="247.66972890751384" cy="512.9847371177462" opacity="0.13657325038898893"></circle><circle r="5.234966523662365" cx="543.4326849096508" cy="782.4983731451807" opacity="0.9874830610103071"></circle><circle r="5.15890306018434" cx="408.60181159745423" cy="397.01141335459664" opacity="0.9997007750450061"></circle><circle r="9.697123112902212" cx="128.0247173461441" cy="511.8998905722198" opacity="0.9919565870074858"></circle><circle r="7.387490993209003" cx="545.9077635367695" cy="228.29199681967546" opacity="0.8515308937766695"></circle><circle r="7.921033092386117" cx="714.2364496788691" cy="474.96003066355564" opacity="0.21370347519643818"></circle><circle r="10.22551962778697" cx="368.1296292468204" cy="83.95886848212294" opacity="0.14243091741218633"></circle><circle r="3.925315058772399" cx="512.7804879054651" cy="475.830863819239" opacity="0.6221038289514571"></circle><circle r="8.05763379177934" cx="118.19623116598166" cy="26.696411929659263" opacity="0.6315744956234026"></circle><circle r="7.547718736420443" cx="122.59703710203196" cy="548.6650041701521" opacity="0.1131037287947791"></circle><circle r="4.735840145957601" cx="554.7357910562313" cy="14.857513051714218" opacity="0.37952930390086803"></circle><circle r="8.252148694117444" cx="668.1683410556043" cy="218.91418389496948" opacity="0.8769731174980786"></circle><circle r="7.598902226080655" cx="477.3348971140193" cy="777.7672771346843" opacity="0.9127433751701702"></circle><circle r="3.99453908049078" cx="731.2037144593827" cy="64.64759154512048" opacity="0.28058987700527216"></circle><circle r="9.56531782638189" cx="340.96133976464785" cy="726.695192481177" opacity="0.5288311112057669"></circle><circle r="9.547133408576375" cx="27.13312776029691" cy="342.307870770059" opacity="0.7070963674953208"></circle><circle r="7.223619210323728" cx="717.7892877416627" cy="375.52036835382336" opacity="0.4849528282220261"></circle><circle r="4.895899109905006" cx="596.3478064271821" cy="36.5365851655974" opacity="0.7725302208424933"></circle><circle r="3.5813649340829445" cx="544.8794230114843" cy="513.0770219988397" opacity="0.30528556390781986"></circle><circle r="6.850834041852255" cx="106.92038437124216" cy="417.6326999395078" opacity="0.33856157309498863"></circle><circle r="8.719924813961768" cx="532.6825373999992" cy="262.54433710193007" opacity="0.19600996408209928"></circle><circle r="4.5337694594645255" cx="279.7065624336761" cy="223.16468377328135" opacity="0.23142067482581155"></circle><circle r="7.325789323003834" cx="81.97206574657548" cy="762.2487729728014" opacity="0.2470692119208586"></circle><circle r="4.176628720628684" cx="298.4624891547768" cy="94.52526252562207" opacity="0.8034303919753163"></circle><circle r="5.817560156431225" cx="520.7333908903615" cy="616.3357276408718" opacity="0.968514509587347"></circle><circle r="7.05495912738423" cx="638.7137791885275" cy="725.9375639618981" opacity="0.7175859013973335"></circle><circle r="8.950638263511852" cx="576.3425155733701" cy="325.1933262912715" opacity="0.8525265633644497"></circle><circle r="5.442383898999623" cx="104.15830033621607" cy="88.79522776832148" opacity="0.5446845671271678"></circle><circle r="10.553311174742134" cx="175.8503838012475" cy="769.0221159363534" opacity="0.433208511126128"></circle><circle r="5.208841976719638" cx="263.69995137989525" cy="92.32168955394997" opacity="0.9763695086312258"></circle><circle r="11.452483429195894" cx="48.385856125327706" cy="451.9842622809585" opacity="0.4972513119347438"></circle><circle r="8.261568579266331" cx="420.93579100955924" cy="143.26390364851213" opacity="0.43064460766629353"></circle><circle r="5.41005810747611" cx="387.4855932500719" cy="670.4026539196425" opacity="0.4881667667096462"></circle><circle r="10.868870655421201" cx="80.61527013434616" cy="704.9446200583237" opacity="0.846136980345681"></circle><circle r="7.948995280428946" cx="280.1269018932421" cy="721.610545405866" opacity="0.4809977446487008"></circle><circle r="9.15294716543522" cx="560.3042079061329" cy="382.100716825687" opacity="0.38558571481778403"></circle><circle r="5.998575087708884" cx="548.1636664687611" cy="582.246878106977" opacity="0.35780725738706964"></circle><circle r="8.512792684477178" cx="435.85548420458053" cy="747.1027249227353" opacity="0.2178338712948406"></circle><circle r="7.88388942678348" cx="433.94587980648623" cy="341.9629011692585" opacity="0.4150306412983962"></circle><circle r="7.72643312091822" cx="485.4386422061972" cy="227.35470548793145" opacity="0.23541214000595873"></circle><circle r="5.416880769114596" cx="419.58602056992584" cy="305.1912705836285" opacity="0.3447701233398526"></circle><circle r="4.469597409177366" cx="380.7542212880401" cy="393.847015529197" opacity="0.6373434018137614"></circle><circle r="4.815405278930371" cx="223.93400113704402" cy="428.83283739856955" opacity="0.9669990986759618"></circle><circle r="14.122763703289602" cx="684.9357004164825" cy="534.5065421661468" opacity="0.7185887559767121"></circle><circle r="9.161609853419131" cx="684.444544296534" cy="730.394845671123" opacity="0.7776745699988888"></circle><circle r="6.55440635496824" cx="523.9272000209354" cy="336.54965836262363" opacity="0.2971237289520978"></circle><circle r="7.661983102516117" cx="121.09883284771495" cy="303.0839737086428" opacity="0.7632340738134161"></circle><circle r="5.666427894121221" cx="468.0460571729741" cy="722.7185548852157" opacity="0.44281078273278374"></circle><circle r="5.897574553812252" cx="584.3598858238064" cy="463.4274413626062" opacity="0.6988126280523652"></circle><circle r="5.817378512115848" cx="160.08664887297644" cy="296.46370103046445" opacity="0.8209862839763211"></circle><circle r="8.119484710579925" cx="700.1714325536537" cy="278.43833488484927" opacity="0.10216419142005569"></circle><circle r="7.03545142616686" cx="316.69248366183433" cy="593.0683492824552" opacity="0.2805616555901988"></circle><circle r="6.564765670808644" cx="594.0245245138323" cy="656.2377719575045" opacity="0.39155589251296397"></circle><circle r="7.753452336985803" cx="388.75310729955766" cy="173.7808977221472" opacity="0.38745097111668225"></circle><circle r="4.473359388470178" cx="196.22195900930842" cy="457.4775168317974" opacity="0.7248516582658424"></circle><circle r="5.957626819192682" cx="146.215804017368" cy="336.7664588777181" opacity="0.44755038509253287"></circle><circle r="8.157634046070987" cx="508.11877096941066" cy="579.8705145134596" opacity="0.8237134204119773"></circle><circle r="5.462832947317578" cx="736.204659123091" cy="303.66122939107845" opacity="0.9524043198487192"></circle><circle r="10.130010153575512" cx="415.6854594157799" cy="66.86908945802544" opacity="0.8049989655882154"></circle><circle r="11.375715732911178" cx="776.9864475739766" cy="728.0627985161474" opacity="0.4079193715126287"></circle><circle r="5.0308545102742555" cx="468.1299798134064" cy="82.98195106120978" opacity="0.9194011813922025"></circle><circle r="4.080400876278332" cx="642.2569851549488" cy="369.925339022875" opacity="0.5598604000880426"></circle><circle r="6.482238963045207" cx="565.8460951818745" cy="738.1862490908037" opacity="0.7316939620441585"></circle><circle r="8.493882239032974" cx="609.5883218704573" cy="350.47204800835465" opacity="0.38346797964045853"></circle><circle r="4.358303448292944" cx="210.67297830494172" cy="132.5566484491905" opacity="0.5869090633644231"></circle><circle r="5.574692735266021" cx="476.5468586790868" cy="562.116499986885" opacity="0.19149742161058003"></circle><circle r="6.5894438017690575" cx="17.216620599966955" cy="632.441006904514" opacity="0.305994474900923"></circle><circle r="8.56481848555846" cx="416.2204075675029" cy="608.2550778770534" opacity="0.6632481770586017"></circle><circle r="8.533918704823147" cx="362.80065365309633" cy="598.8657628492654" opacity="0.39466637907905033"></circle><circle r="5.0071276836962735" cx="501.7353729347176" cy="404.12822148289285" opacity="0.2590870535106137"></circle><circle r="5.733084888236128" cx="175.64737884771537" cy="404.0101666079939" opacity="0.14493344579984768"></circle><circle r="7.338584872064543" cx="135.32229315209065" cy="214.7841812004082" opacity="0.5695288094690272"></circle><circle r="10.108773367108627" cx="326.59175481979105" cy="333.87558971501335" opacity="0.22683901404819465"></circle><circle r="4.124671588727958" cx="7.750014613556658" cy="201.65746052760636" opacity="0.6607436850735159"></circle><circle r="9.397212111914984" cx="426.65587450936766" cy="431.69022934311295" opacity="0.7040952377638013"></circle><circle r="6.8824967862882245" cx="746.1154374723939" cy="22.634200429396746" opacity="0.563813216055498"></circle><circle r="9.108503351731787" cx="307.8411657257868" cy="548.8109931776927" opacity="0.5190347902404852"></circle><circle r="4.8145593071624635" cx="261.69995053915665" cy="445.3007370733063" opacity="0.9284827701518054"></circle><circle r="4.650853390194829" cx="690.4054154619182" cy="345.86045494692746" opacity="0.5117185304366904"></circle><circle r="6.310618704680342" cx="74.18329340932208" cy="560.2861247056975" opacity="0.2627148915376324"></circle><circle r="6.281378462897553" cx="780.6670319893336" cy="22.42320437008694" opacity="0.6816833017420926"></circle><circle r="5.982872695265181" cx="357.6456545289118" cy="205.57779525797932" opacity="0.914249097301631"></circle><circle r="8.733168482689178" cx="435.3625668122187" cy="103.75869673596232" opacity="0.5570344339120731"></circle><circle r="3.759947339866862" cx="38.784860515690255" cy="34.97232496616269" opacity="0.3933325518695039"></circle><circle r="5.433663758001041" cx="50.6466726747674" cy="591.6646432740606" opacity="0.6886089866156558"></circle><circle r="9.467897249601258" cx="460.9537146836143" cy="308.2234804103866" opacity="0.8835748828735006"></circle><circle r="3.833749774896919" cx="39.280651980984814" cy="170.1362191703405" opacity="0.8147078327757049"></circle><circle r="5.660330666550023" cx="639.7755168069652" cy="434.950325158777" opacity="0.5713730141455428"></circle><circle r="8.523463004104173" cx="25.527390946224177" cy="545.312256109165" opacity="0.8820028668104193"></circle><circle r="9.865836757933813" cx="779.3889168761289" cy="65.8381675472876" opacity="0.4462922260746477"></circle><circle r="6.532165267365945" cx="283.79042206810277" cy="524.1430514535093" opacity="0.1603547953581646"></circle><circle r="4.901538227928981" cx="469.1710819294084" cy="357.93464209858996" opacity="0.7404497298509893"></circle><circle r="7.075551734802371" cx="775.9430754240011" cy="443.10486948175793" opacity="0.8227223077505963"></circle><circle r="6.005545145581921" cx="787.6969695118989" cy="264.82165495299864" opacity="0.1934504145066755"></circle><circle r="7.729675837321636" cx="663.7848654375003" cy="82.38394124093453" opacity="0.917407412334098"></circle><circle r="8.55206903718001" cx="435.66699267278744" cy="480.251920933797" opacity="0.12767200322688682"></circle><circle r="5.577273256962918" cx="769.262044079896" cy="391.8293146710689" opacity="0.9501422956641993"></circle><circle r="7.85924123755163" cx="104.82867868481469" cy="177.22720094558198" opacity="0.6784635053292096"></circle><circle r="5.362324060572062" cx="19.080130839149916" cy="132.4791403409279" opacity="0.7189961676401516"></circle><circle r="10.353917740580982" cx="403.67444462497815" cy="704.8995667232383" opacity="0.9364735755968677"></circle><circle r="7.576652804297984" cx="364.37463821571595" cy="553.9746624925117" opacity="0.34459187509278044"></circle><circle r="10.133989671983251" cx="145.0822627697665" cy="619.6265570583131" opacity="0.8012823823529045"></circle><circle r="4.092169386027342" cx="292.4548594009192" cy="281.3051849793203" opacity="0.40589360464959856"></circle><circle r="3.773416850231073" cx="236.99064534025203" cy="146.3074362698905" opacity="0.913314872627165"></circle><circle r="6.877011326135962" cx="34.15717720020431" cy="673.9813352507495" opacity="0.8555209166527865"></circle><circle r="6.207248873231661" cx="171.33656840757456" cy="132.9838350059352" opacity="0.8950294203347677"></circle><circle r="7.912169610670788" cx="185.93972728879825" cy="707.3480029457218" opacity="0.19399946767606085"></circle><circle r="3.7603847994057813" cx="81.96103235222297" cy="250.30158552156053" opacity="0.5488548152192918"></circle><circle r="7.425128522062978" cx="91.19569471621935" cy="50.346102661841044" opacity="0.656789148933425"></circle><circle r="9.397242360475229" cx="440.2220687053195" cy="525.7252731900313" opacity="0.6699510907523449"></circle><circle r="4.633823129866414" cx="585.3407913422697" cy="585.2769149246685" opacity="0.6595171425646987"></circle><circle r="5.14242233270382" cx="192.24381927973403" cy="255.78641701034357" opacity="0.16455123853514328"></circle><circle r="3.894977464816649" cx="785.5506183079752" cy="355.1064475667971" opacity="0.9504682748537756"></circle><circle r="6.058140983403924" cx="602.235928360344" cy="696.2235196242035" opacity="0.4411323176385811"></circle><circle r="8.22677926017857" cx="584.5997488686481" cy="83.93377716524826" opacity="0.4715623981583219"></circle><circle r="8.69876682115565" cx="291.49742551668743" cy="314.3840380156478" opacity="0.6417821248265272"></circle><circle r="10.153277566150965" cx="769.8366707075737" cy="492.30631731181245" opacity="0.32337531400298114"></circle><circle r="10.295324024988767" cx="655.4203065880462" cy="135.4434775573099" opacity="0.9274570790575939"></circle><circle r="5.0688068391167995" cx="306.8253908504951" cy="397.38544674185107" opacity="0.6111035379983514"></circle><circle r="5.440217658544748" cx="371.05342097346244" cy="324.7512084414666" opacity="0.26382736596886674"></circle><circle r="8.433005412642009" cx="265.1450720067341" cy="189.6750175838959" opacity="0.17569372800795838"></circle><circle r="8.36130226539202" cx="364.6807557192759" cy="25.78233653797272" opacity="0.829674292496895"></circle><circle r="9.146647286867784" cx="391.45030606518304" cy="462.82104132946284" opacity="0.7947692976028938"></circle><circle r="4.419576290763414" cx="569.1938461662098" cy="48.08299158151713" opacity="0.16642164792640837"></circle><circle r="6.804523340892609" cx="58.523886474041795" cy="147.9365185788239" opacity="0.1320323846702227"></circle><circle r="7.239526955666463" cx="746.9779890939093" cy="94.43669227066162" opacity="0.8439694391716611"></circle><circle r="5.441950108047674" cx="461.4450921485914" cy="138.8214970667792" opacity="0.24099668383829173"></circle><circle r="9.295968736970117" cx="500.4991534149267" cy="126.93246899310913" opacity="0.7516178856673482"></circle><circle r="5.506282972945862" cx="656.2442017266397" cy="267.264122396145" opacity="0.21310187331070415"></circle><circle r="10.173708882015049" cx="158.67541463778494" cy="25.500902413474872" opacity="0.9002554843662675"></circle><circle r="7.521743201754132" cx="704.2952997617473" cy="103.52002654598188" opacity="0.5776987299821261"></circle><circle r="8.376040976215243" cx="777.9664934770373" cy="219.55148987094364" opacity="0.9620725644114719"></circle><circle r="6.991561551017156" cx="448.0651697657804" cy="669.7174204047552" opacity="0.3658167487825229"></circle><circle r="6.7244610653227115" cx="148.41808560037018" cy="160.92753480882374" opacity="0.7067307556260366"></circle><circle r="3.878869759118688" cx="13.190263745713715" cy="277.8435491327798" opacity="0.166227543379719"></circle><circle r="9.118094482128793" cx="162.92073840625196" cy="70.37325685301212" opacity="0.728187694534788"></circle><circle r="17.63404949109082" cx="665.5333612633418" cy="611.6733349420396" opacity="0.939752090080482"></circle><circle r="7.771779343821475" cx="422.8708706536477" cy="564.4477119553109" opacity="0.13569774866817896"></circle><circle r="7.919963653370384" cx="620.1331593347011" cy="401.4560048124312" opacity="0.5232835884205029"></circle><circle r="9.473368908033311" cx="627.484956021283" cy="108.15999746834605" opacity="0.473942682707591"></circle><circle r="10.511621473985986" cx="234.76792347531082" cy="670.6352253943504" opacity="0.2601349648328858"></circle><circle r="5.4249337155325845" cx="460.74858682847264" cy="413.2839687278123" opacity="0.5105778121147931"></circle><circle r="5.3429714916032545" cx="143.0999164433681" cy="387.05862370977735" opacity="0.3196076851124622"></circle><circle r="6.805618239198351" cx="495.8132786952496" cy="63.629247775805915" opacity="0.7129347056096311"></circle><circle r="7.7775776951465465" cx="438.0129583526789" cy="24.5440539047454" opacity="0.8812101597410338"></circle><circle r="5.166777128500222" cx="263.87543571559127" cy="144.50946604216287" opacity="0.49753450616126016"></circle><circle r="7.189497804417851" cx="106.80206955327918" cy="467.7914278619235" opacity="0.13228915580980757"></circle><circle r="6.185265233901479" cx="234.17579238466737" cy="54.8510852024439" opacity="0.21682056195834581"></circle><circle r="3.590942695729109" cx="328.5089156013022" cy="132.99646914300175" opacity="0.8769758543219836"></circle><circle r="8.81837227723369" cx="575.8059039675011" cy="531.5741856062131" opacity="0.18456315099811688"></circle><circle r="7.600569204920922" cx="232.02075667351326" cy="92.82243463295471" opacity="0.9151467941940392"></circle><circle r="7.489495833818044" cx="478.22872691163263" cy="484.26889968027547" opacity="0.41069889341126853"></circle><circle r="7.48072664112078" cx="232.47998650054052" cy="395.6292389080247" opacity="0.5899298111837185"></circle><circle r="7.82382341448924" cx="294.79239394144497" cy="474.4969613322922" opacity="0.33981725370120924"></circle><circle r="7.763367389619044" cx="194.4862074697324" cy="298.25437386783494" opacity="0.16035152999004904"></circle><circle r="8.543613597144207" cx="475.24607864326657" cy="447.09500339119035" opacity="0.15386266326135373"></circle><circle r="7.3490424679807695" cx="114.86531090117417" cy="585.3264304531342" opacity="0.6518075844277805"></circle><circle r="7.294654853109003" cx="14.326051606761112" cy="589.4772157562076" opacity="0.3770221403101027"></circle><circle r="6.1336593915712045" cx="684.9808228235644" cy="402.9598663733703" opacity="0.26934941937053825"></circle><circle r="7.564938791236405" cx="25.06356057343304" cy="230.79049233015783" opacity="0.575586445783317"></circle><circle r="4.520481131892341" cx="13.550922210881847" cy="772.0046848268762" opacity="0.18508463785683787"></circle><circle r="5.411682081311133" cx="166.31878504435622" cy="500.30149239018687" opacity="0.6936375412546241"></circle><circle r="5.156099024825803" cx="297.586461924076" cy="359.4519920165969" opacity="0.9517071087674478"></circle><circle r="5.285737045286714" cx="46.90100716746209" cy="104.46523681590303" opacity="0.31889328766982405"></circle><circle r="6.087853381874476" cx="626.5169407786898" cy="18.3379943654348" opacity="0.9449045078931984"></circle><circle r="5.305442848414444" cx="499.67525581248213" cy="19.49659711448602" opacity="0.4905003192645734"></circle><circle r="6.349774374277807" cx="319.70002367461734" cy="228.92666347378437" opacity="0.8850328421574667"></circle><circle r="6.870233829215923" cx="355.7782154513586" cy="141.7012436581449" opacity="0.13327209819137256"></circle><circle r="4.9461588184366505" cx="320.4114854337342" cy="660.7400497962878" opacity="0.8371666457207253"></circle><circle r="7.9634165610611785" cx="460.6103035472826" cy="612.1047419046192" opacity="0.32272585270253096"></circle><circle r="6.702708283579206" cx="682.9655262936096" cy="21.206076182268795" opacity="0.1872104535497389"></circle><circle r="7.635811205126197" cx="781.1688428719468" cy="111.84114270208833" opacity="0.9236583398124789"></circle><circle r="3.701493257247958" cx="678.1245096975714" cy="299.7095016876076" opacity="0.4784395392389832"></circle><circle r="8.225565762405246" cx="535.6205276136958" cy="53.72980827686578" opacity="0.9758180495337488"></circle><circle r="6.765446079490722" cx="234.30833740244236" cy="251.29850274404208" opacity="0.44468406341602573"></circle><circle r="9.61425618110556" cx="342.5882314435823" cy="502.2277082593014" opacity="0.80557175522649"></circle><circle r="5.7338947185152325" cx="264.33128346373223" cy="481.67442788568724" opacity="0.873001472712571"></circle><circle r="14.343438185927262" cx="723.5524740194205" cy="676.6655621551936" opacity="0.6486723444333364"></circle><circle r="8.8056070807039" cx="482.23834400838473" cy="522.4197104809639" opacity="0.42647515294217775"></circle><circle r="4.152987368792333" cx="595.8034426927711" cy="790.4238009724859" opacity="0.9545668772628962"></circle><circle r="6.4616588544289915" cx="727.8355547061593" cy="263.7053094679644" opacity="0.8640753205877548"></circle><circle r="5.7870348056563845" cx="686.0181569454205" cy="184.60005747872518" opacity="0.9332637502322428"></circle><circle r="5.892099218539702" cx="46.27544942076189" cy="783.4801774460396" opacity="0.14386419102605894"></circle><circle r="10.056084602283995" cx="162.39624485033426" cy="667.8859453268566" opacity="0.6661364122605603"></circle><circle r="8.06414480923031" cx="348.1186454531617" cy="650.4116769087852" opacity="0.8491370000514084"></circle><circle r="4.398737597792182" cx="297.02936048462715" cy="155.41508968230514" opacity="0.8038155413598851"></circle><circle r="4.077631348116063" cx="558.5320014889294" cy="621.2585742314571" opacity="0.5562778337586578"></circle><circle r="6.463699320714037" cx="84.55445607486244" cy="219.60321889644013" opacity="0.47736567478405056"></circle><circle r="3.702760212259655" cx="711.7379127954772" cy="10.966668038950239" opacity="0.5391397281844822"></circle><circle r="6.900169861195051" cx="24.48649280832332" cy="494.3091291696702" opacity="0.48225889871563676"></circle><circle r="8.359614697949642" cx="117.98153300491606" cy="263.89393012180557" opacity="0.17717363580991363"></circle><circle r="5.383689820764081" cx="228.55494069565833" cy="296.31759922290706" opacity="0.3614857901847982"></circle><circle r="3.7452608666406113" cx="255.93261740826247" cy="417.1408629842381" opacity="0.8047893366897461"></circle><circle r="5.6089583974312145" cx="530.108108264119" cy="191.1786475464285" opacity="0.6368985317938157"></circle><circle r="7.223653751059834" cx="211.78911321786404" cy="176.00475592269916" opacity="0.6149689318699002"></circle><circle r="3.894514518248939" cx="11.226605940752696" cy="166.92447613876445" opacity="0.6332594436737319"></circle><circle r="7.420264224836299" cx="213.72482110656438" cy="361.5869408565925" opacity="0.6114571417149992"></circle><circle r="6.0039228173577435" cx="740.9732744289745" cy="768.4095043836292" opacity="0.9940681035630774"></circle><circle r="5.813654472761324" cx="347.61367115123494" cy="295.99472331362904" opacity="0.40171810547269293"></circle><circle r="8.94553110473767" cx="683.9034239664588" cy="444.8396673485412" opacity="0.6470680646346062"></circle><circle r="5.935461904961146" cx="395.28912971835865" cy="351.7243877485805" opacity="0.19238587795605142"></circle><circle r="4.705873432889736" cx="261.33008554135085" cy="286.41143185745585" opacity="0.6762304969560754"></circle><circle r="7.8000519692014585" cx="336.5222849690265" cy="412.3063147614088" opacity="0.49135203304011044"></circle><circle r="9.666790841617217" cx="358.0806520178087" cy="778.3752427454705" opacity="0.8834964914054155"></circle><circle r="5.028850805911799" cx="692.6068247150636" cy="777.7136514492919" opacity="0.5305306935993249"></circle><circle r="6.495928966419491" cx="47.45303907256139" cy="738.0983727953089" opacity="0.37342415116407657"></circle><circle r="3.98387644686014" cx="592.398195593355" cy="767.8228577810856" opacity="0.8815804618564497"></circle><circle r="9.790818046799867" cx="108.49419949708556" cy="367.58418539280825" opacity="0.7842214286983367"></circle><circle r="8.547459699635802" cx="487.83866957888813" cy="647.7595020714763" opacity="0.17232048698621905"></circle><circle r="7.840057006994302" cx="403.73091096088876" cy="765.1964479253795" opacity="0.3566307982673603"></circle><circle r="8.470550856974825" cx="393.33508379827515" cy="242.44761259380033" opacity="0.15318024722837337"></circle><circle r="11.435810754265963" cx="64.15071114670597" cy="393.4915626919382" opacity="0.6374217777309945"></circle><circle r="6.497737462524614" cx="92.46618692932375" cy="131.718628761727" opacity="0.9795632853662398"></circle><circle r="6.586953016081479" cx="391.5639057633239" cy="513.9555485168478" opacity="0.34799544933838267"></circle><circle r="4.351846649899718" cx="758.0393262687292" cy="338.3546996167205" opacity="0.4006139765081709"></circle><circle r="10.762808635050302" cx="440.90921733079335" cy="254.73253012022494" opacity="0.6738658789906998"></circle><circle r="9.003706371192925" cx="451.8636879071991" cy="185.43499504020735" opacity="0.4371897353567874"></circle><circle r="5.824748763189877" cx="226.5210790512695" cy="731.0838519658947" opacity="0.5847535604527885"></circle><circle r="3.911210166178515" cx="629.8251411507215" cy="769.2312118420972" opacity="0.7209712222072685"></circle><circle r="6.546778655382821" cx="18.400520673151217" cy="405.5446745262339" opacity="0.3335475127136248"></circle><circle r="5.212545962775948" cx="391.60808744210664" cy="283.4385018579903" opacity="0.48564529684344393"></circle><circle r="6.029189140899334" cx="599.4413748607204" cy="622.0741020365084" opacity="0.22738721328602127"></circle><circle r="7.667804671632538" cx="624.6856582520057" cy="61.66646216089032" opacity="0.9230857417748334"></circle><circle r="8.654613817872132" cx="695.5173002488098" cy="148.73362861140234" opacity="0.4159144475951706"></circle><circle r="7.524411930033117" cx="213.1473808346446" cy="18.02441967314927" opacity="0.7356349600724481"></circle><circle r="6.409877387763496" cx="609.455111814847" cy="502.4708428711709" opacity="0.18114402608764563"></circle><circle r="5.719853083109729" cx="11.712663797960639" cy="46.58587809689962" opacity="0.8858486403380558"></circle><circle r="6.337417460604578" cx="538.6092787334653" cy="97.25388384894683" opacity="0.5935137749357385"></circle><circle r="6.835253846409606" cx="255.46274147873476" cy="332.58914503483" opacity="0.258201620741094"></circle><circle r="5.392752747721059" cx="760.3928902477819" cy="276.23907395522076" opacity="0.5098612587604248"></circle><circle r="7.042889513601017" cx="555.9855210909018" cy="704.9433769074999" opacity="0.6892153273710993"></circle><circle r="7.835660048073335" cx="316.17893211921836" cy="183.53190987627633" opacity="0.2716869494355081"></circle><circle r="4.571312972729951" cx="606.6720348453647" cy="186.6558182893094" opacity="0.9056220534823529"></circle><circle r="7.06276953826913" cx="229.4082329243671" cy="214.7882192042814" opacity="0.610377275401349"></circle><circle r="5.477578359413199" cx="507.8772595690498" cy="366.322774895858" opacity="0.8696377890770468"></circle><circle r="9.146736676225693" cx="705.0356836573774" cy="229.38965641637316" opacity="0.7068854263388259"></circle><circle r="10.522602047991526" cx="525.613519161642" cy="441.1683078435896" opacity="0.6062408529845266"></circle><circle r="5.031108895825759" cx="154.03904517631602" cy="255.36093576630657" opacity="0.22021393871333947"></circle><circle r="5.541141843472863" cx="60.00169837432062" cy="197.86193606981521" opacity="0.12764312392147864"></circle><circle r="4.350592291913435" cx="73.08886368842624" cy="80.48223098000078" opacity="0.9875940302320442"></circle><circle r="5.452923988551986" cx="351.538560557348" cy="369.68162709858336" opacity="0.3402295094380635"></circle><circle r="9.111804605798213" cx="323.7587204034478" cy="66.66735186310504" opacity="0.7853502509377407"></circle><circle r="7.490901997257106" cx="245.57751227649788" cy="364.7236008972483" opacity="0.34212855044854973"></circle><circle r="8.962050001029333" cx="636.1596500804135" cy="237.6365583572481" opacity="0.43445658978853363"></circle><circle r="5.112787424760096" cx="211.78150423048805" cy="531.0161914932158" opacity="0.6922832979075558"></circle><circle r="7.848326340074198" cx="783.7315104331473" cy="180.3335094173749" opacity="0.31138213525627056"></circle><circle r="6.362923994970405" cx="653.7867827911701" cy="25.05924029011332" opacity="0.13106018736848152"></circle><circle r="11.068435195380058" cx="731.804161206948" cy="422.1470040165132" opacity="0.9572311295348236"></circle><circle r="6.357601922934945" cx="545.9795210307547" cy="672.8721071362394" opacity="0.14499194666128573"></circle><circle r="7.605618273137081" cx="333.63586719322853" cy="461.53505665134844" opacity="0.8905917940931706"></circle><circle r="4.971053010555345" cx="234.32099507699036" cy="466.5163373828326" opacity="0.6939431461772665"></circle><circle r="7.195096272552426" cx="182.1593239977806" cy="208.58025329994177" opacity="0.8580956877561143"></circle><circle r="6.394233044827345" cx="193.69541424508324" cy="332.8578285930083" opacity="0.8388424192812801"></circle><circle r="7.593009618294768" cx="590.481638243857" cy="132.1140233866585" opacity="0.6226615213489723"></circle><circle r="4.421642448320071" cx="67.08205617299578" cy="9.409524347719385" opacity="0.41486566398881464"></circle><circle r="8.873238971134334" cx="685.3469545597942" cy="58.24918281760762" opacity="0.6531630901666979"></circle><circle r="11.32058791349117" cx="77.71052714128952" cy="512.3931688032748" opacity="0.8981474448495835"></circle><circle r="8.274817248581549" cx="736.0564982060778" cy="188.49729194213396" opacity="0.9775182510586056"></circle><circle r="5.5279946458683265" cx="43.74273629013286" cy="266.6755514057637" opacity="0.3887325831569177"></circle><circle r="6.599624382820888" cx="780.2161133719208" cy="574.3462048124494" opacity="0.2834845021538014"></circle><circle r="7.8520019940914025" cx="18.260275506951537" cy="715.4588339221367" opacity="0.3604937891529404"></circle><circle r="7.504811139971736" cx="772.4288157168323" cy="149.82171900688763" opacity="0.6278009038998399"></circle><circle r="7.073497080445083" cx="745.618417117725" cy="538.7411283700822" opacity="0.8125626592830021"></circle><circle r="6.736049355393028" cx="109.02427780479833" cy="669.4897216663019" opacity="0.9456993482758089"></circle><circle r="7.587329302177692" cx="513.1987299407049" cy="513.297970394137" opacity="0.7086072986253044"></circle><circle r="12.201684500768145" cx="594.0894791374191" cy="254.10068869134017" opacity="0.6910828886674483"></circle><circle r="8.256551499632762" cx="438.21084497026214" cy="382.6786763266219" opacity="0.8248369774794232"></circle><circle r="6.875152901224375" cx="12.994568309815609" cy="90.8820272358684" opacity="0.5582547859803769"></circle><circle r="8.532980283027772" cx="283.56312185213693" cy="27.088670302846854" opacity="0.70179262353976"></circle><circle r="4.126118570954429" cx="40.533332350863446" cy="66.76432488795541" opacity="0.5972536109328892"></circle><circle r="13.173737704009753" cx="268.2462745349105" cy="613.2724882860359" opacity="0.49066460242464904"></circle><circle r="8.159874516679912" cx="80.605667434082" cy="285.8466265681092" opacity="0.9383646833014143"></circle><circle r="7.77019641311758" cx="496.51155926394" cy="177.31090927389786" opacity="0.5410744851409387"></circle></g></svg>