<svg xmlns="http://www.w3.org/2000/svg" version="1.1" xmlns:xlink="http://www.w3.org/1999/xlink" viewBox="0 0 700 700" style="overflow: hidden; display: block;" width="700" height="700"><defs><linearGradient id="two-233" x1="350" y1="-350" x2="350" y2="350" spreadMethod="pad" gradientUnits="userSpaceOnUse"><stop offset="0%" stop-color="hsl(1.4, 100%, 67%)" stop-opacity="1"></stop><stop offset="100%" stop-color="hsl(167, 52%, 78%)" stop-opacity="1"></stop></linearGradient></defs><g id="two-0" transform="matrix(1 0 0 1 0 0)" opacity="1"><path transform="matrix(1 0 0 1 350 350)" id="two-232" d="M 298.65048 49.83595 L 282.455135 96.96697 L 290.634611 157.283586 L 113.201381 88.108171 L 230.39157 250.271961 L 146.877284 224.812419 L 119.892703 273.327834 L 54.716886 216.0721 L 21.783715 262.890354 L -20.419392 246.425412 L -37.898589 149.65814 L -139.885588 318.907018 L -158.672236 242.865935 L -188.507784 204.77404 L -270.833403 210.798098 L -265.206579 143.522623 L -232.304643 79.750284 L -173.741631 28.99235 L -169.503632 0 L -131.177151 -21.889595 L -176.728059 -60.67082 L -221.921495 -120.097908 L -239.859522 -186.69016 L -111.500096 -121.121392 L -68.525123 -104.885508 L -81.923816 -186.767487 L -39.141101 -154.564713 L -16.594783 -200.269246 L 10.73459 -129.547237 L 33.048874 -130.507053 L 89.166266 -203.278612 L 66.000754 -101.021676 L 126.618412 -137.544262 L 203.095171 -158.075317 L 233.214238 -126.209235 L 306.77258 -105.31516 L 172.854119 -28.844251 L 196.694136 -0.000001 Z " fill="hsl(30, 79%, 55%)" stroke="undefined" stroke-width="1" stroke-opacity="1" fill-opacity="1" visibility="visible" stroke-linecap="butt" stroke-linejoin="miter" stroke-miterlimit="4"></path></g></svg>